<?xml version="1.0" standalone="no"?>
<!DOCTYPE svg PUBLIC "-//W3C//DTD SVG 20010904//EN"
 "http://www.w3.org/TR/2001/REC-SVG-20010904/DTD/svg10.dtd">
<svg version="1.0" xmlns="http://www.w3.org/2000/svg"
 width="1111.000000pt" height="430.000000pt" viewBox="0 0 1111.000000 430.000000"
 preserveAspectRatio="xMidYMid meet">

<g transform="translate(0.000000,430.000000) scale(0.100000,-0.100000)"
fill="#a19faf" stroke="none">
<path d="M1053 3563 c-21 -16 -117 -108 -212 -205 -146 -149 -172 -181 -168
-200 8 -32 338 -358 363 -358 11 0 70 50 144 125 l125 125 700 0 700 0 465
-465 c356 -356 471 -465 489 -465 17 0 58 33 143 118 66 64 133 134 149 154
33 40 45 91 35 135 -9 35 -983 1015 -1038 1044 -36 18 -68 19 -946 19 l-909 0
-40 -27z"/>
<path d="M4610 3569 c-8 -14 -10 -274 -7 -902 3 -864 4 -884 25 -979 130 -579
598 -968 1162 -968 809 0 1379 788 1128 1560 -22 69 -97 227 -129 271 -10 15
-19 30 -19 33 0 3 148 6 329 6 l330 0 3 -592 4 -593 27 -88 c48 -156 117 -268
230 -374 112 -104 241 -169 395 -199 97 -19 642 -20 660 -2 17 17 17 454 0
465 -7 4 -141 10 -298 13 -271 5 -287 6 -331 28 -63 31 -117 86 -148 152 l-26
55 -3 568 -3 567 462 -2 462 -3 247 -740 c136 -407 260 -766 275 -798 74 -151
218 -270 376 -312 74 -20 241 -19 310 1 146 43 285 154 352 282 21 39 169 470
361 1052 269 811 325 989 317 1008 -11 22 -12 22 -245 22 -246 0 -274 -4 -295
-44 -6 -11 -144 -430 -307 -931 -177 -548 -302 -915 -311 -922 -23 -17 -48
-16 -67 2 -13 13 -204 584 -523 1560 -25 77 -54 156 -64 175 -25 50 -86 105
-144 132 l-50 23 -577 3 -578 3 0 232 c0 168 -3 236 -12 245 -17 17 -469 17
-486 0 -9 -9 -12 -77 -12 -245 l0 -233 -919 0 c-845 0 -920 -1 -932 -17 -11
-13 -13 -62 -11 -242 2 -128 8 -230 13 -236 6 -5 83 -13 172 -16 153 -6 167
-8 252 -40 249 -95 419 -293 462 -536 35 -201 -35 -427 -181 -581 -17 -19 -59
-54 -93 -78 -222 -160 -503 -176 -731 -42 -93 54 -220 189 -270 285 -85 164
-82 123 -82 1089 0 530 -4 862 -10 878 l-10 26 -234 0 c-227 0 -236 -1 -246
-21z"/>
<path d="M172 2687 c-144 -145 -172 -178 -172 -203 0 -25 104 -133 808 -835
874 -874 847 -850 1007 -899 190 -58 401 -25 572 91 27 17 252 235 501 483
359 358 452 456 452 476 0 19 -40 65 -173 198 -108 107 -180 172 -192 172 -13
0 -172 -153 -455 -436 -239 -239 -447 -442 -462 -450 -37 -19 -77 -18 -111 5
-15 10 -375 368 -800 795 -425 427 -779 777 -787 776 -9 0 -93 -78 -188 -173z"/>
</g>
</svg>
